# xmcd
#
# Track frame offsets:
#	150
#	7090
#	23002
#	29937
#
# Disc length: 609 seconds
#
# Revision: 1
# Processed by: cddbd v1.5.1PL0 Copyright (c) Steve Scherf et al.
# Submitted via: CDex 1.50Beta5
#
DISCID=2d025f04
DTITLE=松任谷由実 - <不明>
DYEAR=1900
DGENRE=Classical
TTITLE0=No 01
TTITLE1=No 02
TTITLE2=No 03
TTITLE3=No 04
EXTD=
EXTT0=
EXTT1=
EXTT2=
EXTT3=
PLAYORDER=
